<?xml version="1.0" encoding="utf-8"?>
<!-- Generator: Adobe Illustrator 20.1.0, SVG Export Plug-In . SVG Version: 6.00 Build 0)  -->
<svg version="1.1" id="Ebene_1" xmlns="http://www.w3.org/2000/svg" xmlns:xlink="http://www.w3.org/1999/xlink" x="0px" y="0px"
	 viewBox="140 170 560 240" style="enable-background:new 0 0 560 240;" xml:space="preserve">
<style type="text/css">
	.st0{fill:#FFFFFF;}
	.st1{fill:#D80068;}
</style>
<g>
	<path class="st0" d="M173.5,212.3H186V368h72v11.5h-84.5V212.3z M278,258.6h12v121h-12V258.6z M317.4,258.6h12v121h-12V258.6z
		 M356.5,258.6h12v23.3c5.3-14.2,16.1-25.2,37.9-25.2c18.7,0,31.9,10.3,37.2,27.8c5.5-18,19.7-27.8,42-27.8
		c24.7,0,40.6,18.7,40.6,48.2v74.6h-12v-72.2c0-24.2-12.2-39.4-31.7-39.4c-21.6,0-35.3,18.2-35.3,45.4v66.2h-12v-72.2
		c0-24.2-12.7-39.4-31.9-39.4c-21.4,0-34.8,18.7-34.8,46.6v65h-12L356.5,258.6L356.5,258.6z M607.9,255.5c24.7,0,43,13.7,48,28.3
		v-25.2h12v121h-12v-25.2c-5,14.6-23.3,28.3-48,28.3c-34.1,0-61-27.1-61-63.6C546.9,282.6,574,255.5,607.9,255.5z M607.9,371.4
		c28.1,0,49.4-21.8,49.4-52.3s-21.4-52.3-49.4-52.3c-27.8,0-49,22.8-49,52.3C558.9,348.8,580,371.4,607.9,371.4z"/>
	<path class="st1" d="M335.2,225.8c0,6.6-5.4,12-12,12c-0.6,0-1.2-0.1-1.7-0.1c-3.9,5.6-10.5,9.3-18,9.3s-14.1-3.7-18-9.3
		c-0.6,0.1-1.2,0.1-1.7,0.1c-6.6,0-12-5.4-12-12s5.4-12,12-12s12,5.4,12,12c0,4.5-2.5,8.5-6.2,10.5c3.2,4,8.3,6.7,14,6.7
		s10.7-2.6,13.9-6.7c-3.7-2-6.3-6-6.3-10.5c0-6.6,5.4-12,12-12S335.2,219.2,335.2,225.8z"/>
</g>
</svg>
